# xmcd CD database file
#
# Track frame offsets:
#	150
#	14397
#	24825
#	36972
#	52902
#	65370
#	81397
#	97332
#	111265
#	119462
#	133042
#	144602
#	157882
#
# Disc length: 2368 seconds
#
# Revision: 0
# Processed by: cddbd v1.4PL0 Copyright (c) Steve Scherf et al.
# Submitted via: CDex 1.40Release
#
DISCID=af093e0d
DTITLE=Speedtrucker - Live At Muddy Waters
DYEAR=2000
DGENRE=Country
TTITLE0=Girl On The Billboard
TTITLE1=All I Do Is Drive
TTITLE2=Cocaine Blues
TTITLE3=Never Met A Girl I Didn't Like
TTITLE4=Looking At The World Through A Windshield
TTITLE5=I'm The Only Hell Momma Ever Raised
TTITLE6=Truckdrivin Man (give It All I Can)
TTITLE7=Whiskey-bent And Hellbound
TTITLE8=Truckdrivin Son-of-a-gun
TTITLE9=Jumpercable Man
TTITLE10=Okie From Muskogee
TTITLE11=Truckin' On
TTITLE12=Eastbound And Down
EXTD=YEAR: 2000 ID3G: 2
EXTT0=
EXTT1=
EXTT2=
EXTT3=
EXTT4=
EXTT5=
EXTT6=
EXTT7=
EXTT8=
EXTT9=
EXTT10=
EXTT11=
EXTT12=
PLAYORDER=
